<?xml version="1.0" encoding="UTF-8"?>
<svg id="Layer_1" data-name="Layer 1" xmlns="http://www.w3.org/2000/svg" viewBox="0 0 60 60">
  <defs>
    <style>
      .cls-1 {
        fill: #435ca1;
      }

      .cls-2 {
        fill: #fff;
      }
    </style>
  </defs>
  <circle class="cls-2" cx="26.09" cy="33.9" r="26"/>
  <path class="cls-1" d="M59.97,6.56l-5.93-.74L53.43.04s-.05-.06-.07-.03l-7.41,7.41.55,4.74-2.64,2.64c-4.66-4.33-10.9-6.99-17.75-6.99C11.71,7.81,0,19.52,0,33.9s11.71,26.09,26.09,26.09,26.09-11.71,26.09-26.09c0-6.85-2.66-13.09-6.99-17.75l2.64-2.64,4.74.55,7.41-7.41s.02-.07-.02-.08ZM50.28,33.9c0,13.34-10.85,24.19-24.19,24.19S1.9,47.24,1.9,33.9,12.76,9.71,26.09,9.71c6.33,0,12.09,2.44,16.41,6.44l-2.87,2.87c-3.58-3.25-8.32-5.25-13.54-5.25-11.12,0-20.14,9.01-20.14,20.13s9.02,20.14,20.14,20.14,20.14-9.02,20.14-20.14c0-5.22-2-9.95-5.26-13.53l2.87-2.87c3.99,4.32,6.44,10.08,6.44,16.41ZM31.24,33.9c0,2.85-2.3,5.15-5.15,5.15s-5.14-2.3-5.14-5.15,2.3-5.14,5.14-5.14c1.08,0,2.08.33,2.9.9l-2.78,2.78s-.08-.01-.12-.01c-.8,0-1.48.68-1.48,1.48s.68,1.48,1.48,1.48,1.48-.68,1.48-1.48c0-.04,0-.08-.01-.12l2.78-2.78c.57.83.9,1.82.9,2.9ZM32.57,26.08c-1.76-1.46-4.01-2.34-6.48-2.34-5.6,0-10.15,4.55-10.15,10.15s4.55,10.15,10.15,10.15,10.15-4.54,10.15-10.15c0-2.46-.87-4.71-2.33-6.47l3.53-3.53c2.36,2.67,3.8,6.16,3.8,10,0,8.37-6.78,15.15-15.15,15.15s-15.14-6.78-15.14-15.15,6.78-15.14,15.14-15.14c3.84,0,7.34,1.44,10.01,3.79l-3.53,3.53Z"/>
</svg>