<?xml version="1.0" encoding="UTF-8"?>
<svg id="Layer_1" data-name="Layer 1" xmlns="http://www.w3.org/2000/svg" viewBox="0 0 53.18 60">
  <defs>
    <style>
      .cls-1 {
        fill: #72c169;
      }

      .cls-2 {
        fill: #f7bb3e;
      }

      .cls-3 {
        fill: #ededee;
      }

      .cls-4 {
        fill: #34328b;
      }

      .cls-5 {
        fill: #f15b5c;
      }

      .cls-6 {
        fill: #3a6f94;
      }

      .cls-7 {
        fill: #486ab2;
      }
    </style>
  </defs>
  <path class="cls-2" d="M29.04,5.49h-4.9v-2.45c0-1.35,1.1-2.45,2.45-2.45h0c1.35,0,2.45,1.1,2.45,2.45v2.45Z"/>
  <path class="cls-2" d="M24.14,42.16h4.9s0,11.87,0,11.87c0,1.35-1.1,2.45-2.45,2.45h0c-1.35,0-2.45-1.1-2.45-2.45v-11.87h0Z"/>
  <path class="cls-2" d="M42.93,59.41c-1.11,0-2.12-.77-2.39-1.9l-3.43-14.77c-.31-1.32.51-2.64,1.83-2.94,1.32-.31,2.63.51,2.94,1.83l3.43,14.77c.31,1.32-.51,2.64-1.83,2.94-.19.04-.37.06-.56.06Z"/>
  <path class="cls-2" d="M9.63,59.41c-.18,0-.37-.02-.56-.06-1.32-.31-2.14-1.62-1.83-2.94l3.43-14.77c.31-1.32,1.63-2.14,2.94-1.83,1.32.31,2.14,1.62,1.83,2.94l-3.43,14.77c-.26,1.13-1.27,1.9-2.39,1.9Z"/>
  <path class="cls-6" d="M52.59,7.95v34.25c0,1.35-1.1,2.45-2.45,2.45H3.04c-1.35,0-2.45-1.1-2.45-2.45V7.95c0-1.35,1.1-2.45,2.45-2.45h47.1c1.35,0,2.45,1.1,2.45,2.45Z"/>
  <rect class="cls-3" x="5.49" y="10.63" width="42.2" height="29.35"/>
  <path class="cls-5" d="M18.73,31.41v4.57c0,.57-.46,1.04-1.04,1.04h-2.11c-.57,0-1.04-.46-1.04-1.04v-4.57c0-.58.47-1.05,1.05-1.05h2.09c.58,0,1.05.47,1.05,1.05Z"/>
  <path class="cls-2" d="M25.68,28.32v7.66c0,.57-.46,1.04-1.04,1.04h-2.11c-.57,0-1.04-.46-1.04-1.04v-7.66c0-.58.47-1.05,1.05-1.05h2.09c.58,0,1.05.47,1.05,1.05Z"/>
  <path class="cls-7" d="M32.55,25.21v10.77c0,.57-.46,1.04-1.04,1.04h-2.11c-.57,0-1.04-.46-1.04-1.04v-10.77c0-.58.47-1.05,1.05-1.05h2.09c.58,0,1.05.47,1.05,1.05Z"/>
  <path class="cls-1" d="M39.43,19.92v16.06c0,.57-.46,1.04-1.04,1.04h-2.11c-.57,0-1.04-.46-1.04-1.04v-16.06c0-.58.47-1.05,1.05-1.05h2.09c.58,0,1.05.47,1.05,1.05Z"/>
  <path class="cls-2" d="M38.26,13.01l-1.03,3.29c-.15.48-.8.57-1.1.16l-2.46-3.38c-.3-.41,0-.99.51-.98l3.49.08c.41,0,.72.42.6.83Z"/>
  <path class="cls-4" d="M26.59,0c-1.68,0-3.04,1.36-3.04,3.04v1.87H3.04c-1.68,0-3.04,1.36-3.04,3.04v34.25c0,1.68,1.36,3.04,3.04,3.04h6.19l-2.56,11.04c-.38,1.64.64,3.27,2.27,3.65,1.63.38,3.26-.62,3.65-2.27l2.88-12.41h8.08v8.79c0,1.68,1.36,3.04,3.04,3.04s3.04-1.36,3.04-3.04v-8.79h7.46l2.88,12.41c.39,1.66,2.02,2.65,3.65,2.27,1.63-.38,2.66-2.01,2.27-3.65l-2.56-11.04h6.8c1.68,0,3.04-1.36,3.04-3.04V7.95c0-1.68-1.36-3.04-3.04-3.04h-20.51v-1.87c0-1.68-1.36-3.04-3.04-3.04ZM24.73,3.04c0-1.03.84-1.86,1.86-1.86s1.86.84,1.86,1.86v1.87h-3.72v-1.87h0ZM11.44,57.38c-.23,1.01-1.23,1.63-2.23,1.39-1-.23-1.63-1.23-1.39-2.23l2.63-11.31h3.82l-2.82,12.15ZM28.45,54.03c0,1.03-.84,1.86-1.86,1.86s-1.86-.84-1.86-1.86v-8.79h3.72v8.79ZM44.75,56.54c.23,1-.39,2-1.39,2.23-1.01.23-2-.38-2.24-1.39l-2.82-12.15h3.82l2.63,11.31ZM52,7.95v34.25c0,1.03-.84,1.86-1.86,1.86H3.04c-1.03,0-1.86-.84-1.86-1.86V7.95c0-1.03.84-1.86,1.86-1.86h47.1c1.03,0,1.86.84,1.86,1.86Z"/>
  <path class="cls-4" d="M5.49,9.81c-.33,0-.59.26-.59.59v29.35c0,.33.26.59.59.59h42.2c.33,0,.59-.26.59-.59V10.4c0-.33-.26-.59-.59-.59H5.49ZM47.1,39.15H6.08V10.98h41.02v28.17Z"/>
  <path class="cls-4" d="M17.69,29.77h-2.09c-.9,0-1.63.73-1.63,1.63v4.57c0,.9.73,1.62,1.62,1.62h2.11c.9,0,1.62-.73,1.62-1.62v-4.57c0-.9-.73-1.63-1.63-1.63ZM18.14,35.98c0,.25-.2.45-.45.45h-2.11c-.25,0-.45-.2-.45-.45v-4.57c0-.25.2-.46.46-.46h2.09c.25,0,.46.2.46.46v4.57h0Z"/>
  <path class="cls-4" d="M24.63,26.68h-2.09c-.9,0-1.63.73-1.63,1.63v7.66c0,.9.73,1.62,1.62,1.62h2.11c.9,0,1.62-.73,1.62-1.62v-7.66c0-.9-.73-1.63-1.63-1.63ZM25.09,35.98c0,.25-.2.45-.45.45h-2.11c-.25,0-.45-.2-.45-.45v-7.66c0-.25.2-.46.46-.46h2.09c.25,0,.46.2.46.46v7.66h0Z"/>
  <path class="cls-4" d="M31.51,23.58h-2.09c-.9,0-1.63.73-1.63,1.63v10.77c0,.9.73,1.62,1.62,1.62h2.11c.9,0,1.62-.73,1.62-1.62v-10.77c0-.9-.73-1.63-1.63-1.63ZM31.96,35.98c0,.25-.2.45-.45.45h-2.11c-.25,0-.45-.2-.45-.45v-10.77c0-.25.2-.46.46-.46h2.09c.25,0,.46.2.46.46v10.77h0Z"/>
  <path class="cls-4" d="M36.29,18.29c-.9,0-1.63.73-1.63,1.63v16.06c0,.9.73,1.62,1.62,1.62h2.11c.9,0,1.62-.73,1.62-1.62v-16.06c0-.9-.73-1.63-1.63-1.63h-2.09ZM38.84,19.92v16.06c0,.25-.2.45-.45.45h-2.11c-.25,0-.45-.2-.45-.45v-16.06c0-.25.2-.46.46-.46h2.09c.25,0,.46.21.46.46Z"/>
  <path class="cls-4" d="M34.05,14.61l-17.67,11.71c-.27.18-.35.55-.17.82.11.17.3.26.49.26.11,0,.23-.03.33-.1l17.72-11.74.91,1.25c.24.32.6.5.99.5.07,0,.14,0,.21-.02.45-.08.81-.39.94-.82l1.03-3.29s0,0,0,0c.11-.37.04-.76-.19-1.08-.23-.31-.58-.5-.96-.51l-3.49-.08c-.45,0-.88.24-1.09.65-.21.41-.17.9.1,1.27l.86,1.18ZM34.16,12.69l3.49.08s.03.01.04.02c.01.02.02.03.01.05l-1.03,3.29s-.04.02-.07-.01l-2.46-3.38s.02-.05.02-.05Z"/>
  <path class="cls-4" d="M8.18,15.45h14.57c.33,0,.59-.26.59-.59s-.26-.59-.59-.59h-14.57c-.33,0-.59.26-.59.59s.26.59.59.59Z"/>
  <path class="cls-4" d="M8.18,19.31h10.55c.33,0,.59-.26.59-.59s-.26-.59-.59-.59h-10.55c-.33,0-.59.26-.59.59s.26.59.59.59Z"/>
</svg>