<?xml version="1.0" encoding="UTF-8"?>
<svg id="Layer_1" data-name="Layer 1" xmlns="http://www.w3.org/2000/svg" viewBox="0 0 46.29 60.55">
  <defs>
    <style>
      .cls-1 {
        fill: #fac02e;
      }

      .cls-2 {
        stroke: #fff;
      }

      .cls-2, .cls-3 {
        fill: none;
        stroke-linecap: round;
        stroke-linejoin: round;
        stroke-width: 1.11px;
      }

      .cls-4 {
        fill: #fff;
      }

      .cls-3 {
        stroke: #231f20;
      }

      .cls-5 {
        fill: #86b27e;
      }
    </style>
  </defs>
  <path class="cls-1" d="M39.4,26.43c0-8.92-7.7-16.03-16.84-15-6.82.77-12.38,6.23-13.27,13.05-.55,4.24.7,8.18,3.06,11.2,2.69,3.46,4.05,7.81,4.05,12.24v.63h15.77v-.63c0-4.57,1.62-8.92,4.31-12.57,1.84-2.51,2.91-5.57,2.91-8.92Z"/>
  <path class="cls-5" d="M31.7,52.59h-14.89c-1.11,0-2.03-.88-2.03-2.03h0c0-1.11.88-2.03,2.03-2.03h14.89c1.11,0,2.03.88,2.03,2.03h0c0,1.11-.92,2.03-2.03,2.03Z"/>
  <path class="cls-5" d="M30.59,56.57h-12.71c-1.03,0-1.84-.85-1.84-1.84v-.22c0-1.03.85-1.84,1.84-1.84h12.71c1.03,0,1.84.85,1.84,1.84v.22c.04,1-.81,1.84-1.84,1.84Z"/>
  <path class="cls-5" d="M19.02,57.53v.04c0,1.66,1.33,2.99,2.99,2.99h4.5c1.66,0,2.99-1.33,2.99-2.99v-.04c0-.52-.44-.96-.96-.96h-8.55c-.52,0-.96.44-.96.96Z"/>
  <path class="cls-3" d="M38.26,25.28c0-8.92-7.7-16.03-16.84-15-6.82.77-12.38,6.23-13.27,13.05-.55,4.24.7,8.18,3.06,11.2,2.69,3.46,4.05,7.81,4.05,12.24v.63h15.77v-.63c0-4.57,1.62-8.92,4.31-12.57,1.84-2.51,2.91-5.6,2.91-8.92Z"/>
  <path class="cls-3" d="M29.45,55.39h-12.71c-1.03,0-1.84-.85-1.84-1.84v-.22c0-1.03.85-1.84,1.84-1.84h12.71c1.03,0,1.84.85,1.84,1.84v.22c0,1.03-.81,1.84-1.84,1.84Z"/>
  <path class="cls-3" d="M17.84,56.35v.04c0,1.66,1.33,2.99,2.99,2.99h4.5c1.66,0,2.99-1.33,2.99-2.99v-.04c0-.52-.44-.96-.96-.96h-8.55c-.52,0-.96.44-.96.96Z"/>
  <ellipse class="cls-4" cx="15.43" cy="19.39" rx="4.35" ry="2.54" transform="translate(-9.34 18.99) rotate(-50.56)"/>
  <polyline class="cls-2" points="26.5 33.43 23.14 47.1 19.83 33.43"/>
  <path class="cls-2" d="M17.14,31.77c1.51,0,1.51,1.25,2.99,1.25s1.51-1.25,2.99-1.25,1.51,1.25,2.99,1.25,1.51-1.25,2.99-1.25"/>
  <line class="cls-3" x1="23.14" y1="6.34" x2="23.14" y2=".55"/>
  <line class="cls-3" x1="33.43" y1="7.7" x2="36.04" y2="2.54"/>
  <line class="cls-3" x1="40.43" y1="13.49" x2="43.89" y2="11.2"/>
  <line class="cls-3" x1="42.94" y1="21.56" x2="45.74" y2="21.12"/>
  <line class="cls-3" x1="12.86" y1="7.7" x2="10.25" y2="2.54"/>
  <line class="cls-3" x1="5.86" y1="13.49" x2="2.4" y2="11.2"/>
  <line class="cls-3" x1="3.35" y1="21.56" x2=".55" y2="21.12"/>
  <path class="cls-3" d="M30.52,51.41h-14.89c-1.11,0-2.03-.88-2.03-2.03h0c0-1.11.88-2.03,2.03-2.03h14.89c1.11,0,2.03.88,2.03,2.03h0c0,1.14-.92,2.03-2.03,2.03Z"/>
</svg>