<?xml version="1.0" encoding="UTF-8"?>
<svg id="Layer_1" data-name="Layer 1" xmlns="http://www.w3.org/2000/svg" viewBox="0 0 55 50.87">
  <defs>
    <style>
      .cls-1 {
        fill: #e19a5f;
      }

      .cls-2 {
        fill: #231f20;
      }

      .cls-3 {
        fill: #f5cf87;
      }

      .cls-4 {
        opacity: .2;
      }
    </style>
  </defs>
  <g id="Layer_1-2" data-name="Layer 1">
    <g class="cls-4">
      <path class="cls-2" d="M55,45.37c0,3.04-2.46,5.5-5.5,5.5H5.5c-3.04,0-5.5-2.46-5.5-5.5v-27.5c0-3.04,2.46-5.5,5.5-5.5h44c3.04,0,5.5,2.46,5.5,5.5v27.5Z"/>
    </g>
    <path class="cls-1" d="M35.75,5.5v27.5h-16.5V5.5h16.5M35.75,0h-16.5c-3.04,0-5.5,2.46-5.5,5.5v27.5c0,3.04,2.46,5.5,5.5,5.5h16.5c3.04,0,5.5-2.46,5.5-5.5V5.5c0-3.04-2.46-5.5-5.5-5.5h0Z"/>
    <path class="cls-1" d="M0,22v20.62c0,3.04,2.46,5.5,5.5,5.5h44c3.04,0,5.5-2.46,5.5-5.5v-20.62H0Z"/>
    <g class="cls-4">
      <path class="cls-2" d="M55,17.88c0-3.04-2.46-5.5-5.5-5.5H5.5c-3.04,0-5.5,2.46-5.5,5.5v6.88h55v-6.88Z"/>
    </g>
    <g class="cls-4">
      <path class="cls-2" d="M38.5,27.5c0,3.04-2.46,5.5-5.5,5.5h-11c-3.04,0-5.5-2.46-5.5-5.5v-4.12c0-3.04,2.46-5.5,5.5-5.5h11c3.04,0,5.5,2.46,5.5,5.5v4.12Z"/>
    </g>
    <path class="cls-3" d="M33,20.62v4.12h-11v-4.12h11M33,15.12h-11c-3.04,0-5.5,2.46-5.5,5.5v4.12c0,3.04,2.46,5.5,5.5,5.5h11c3.04,0,5.5-2.46,5.5-5.5v-4.12c0-3.04-2.46-5.5-5.5-5.5h0Z"/>
    <path class="cls-1" d="M55,15.12c0-3.04-2.46-5.5-5.5-5.5H5.5c-3.04,0-5.5,2.46-5.5,5.5v6.88h55v-6.88Z"/>
  </g>
</svg>