<?xml version="1.0" encoding="UTF-8"?>
<svg id="Layer_1" data-name="Layer 1" xmlns="http://www.w3.org/2000/svg" viewBox="0 0 58.87 60">
  <defs>
    <style>
      .cls-1 {
        fill: #acccec;
      }

      .cls-2 {
        fill: #010101;
      }

      .cls-3 {
        fill: #d75c5c;
      }

      .cls-4 {
        fill: #ffd8a8;
      }

      .cls-5 {
        fill: #cde5e4;
      }

      .cls-6 {
        fill: #424b57;
      }

      .cls-7 {
        fill: #f3787a;
      }

      .cls-8 {
        fill: #e9f6f6;
      }

      .cls-9 {
        fill: #eabd8b;
      }

      .cls-10 {
        fill: #8db9e3;
      }

      .cls-11 {
        fill: #586170;
      }
    </style>
  </defs>
  <g id="_508_chemistry_lab_chemistry_lab_education" data-name="508, chemistry, lab , chemistry lab , education">
    <g>
      <polygon class="cls-7" points="58.2 7.22 58.2 14.99 51.47 18.88 44.8 15.03 44.8 7.67 44.73 7.63 44.73 7.22 51.47 3.33 58.2 7.22"/>
      <polygon class="cls-3" points="45.8 15.61 45.8 8.56 45.73 8.52 45.73 8.11 52.47 4.22 58.2 7.53 58.2 7.22 51.47 3.33 44.73 7.22 44.73 7.63 44.8 7.67 44.8 15.03 45.8 15.61"/>
      <polygon class="cls-1" points="51.47 19.22 51.47 26.99 44.73 30.88 38 26.99 38 19.29 38.07 19.33 44.8 15.45 44.8 15.37 51.47 19.22"/>
      <polygon class="cls-10" points="39 20.41 39.07 20.44 45.8 16.56 45.8 16.48 51.47 19.75 51.47 19.22 44.8 15.37 44.8 15.45 38.07 19.33 38 19.29 38 26.99 39 27.57 39 20.41"/>
      <polygon class="cls-4" points="44.8 15.03 44.8 15.37 44.73 15.33 38 19.22 38 19.29 31.33 15.45 31.33 7.67 38.07 3.78 44.73 7.63 44.73 14.99 44.8 15.03"/>
      <polygon class="cls-9" points="31.73 8.94 38.47 5.05 44.73 8.67 44.73 7.63 38.07 3.78 31.33 7.67 31.33 15.45 31.73 15.68 31.73 8.94"/>
      <polygon class="cls-11" points="27.87 .67 27.87 6 25.2 6 13.2 6 10.53 6 10.53 .67 27.87 .67"/>
      <polygon class="cls-6" points="11.65 1.85 27.87 1.85 27.87 .67 10.53 .67 10.53 6 11.65 6 11.65 1.85"/>
      <path class="cls-8" d="M25.2,22.94c7.43,2.46,12.8,9.47,12.8,17.73,0,10.31-8.36,18.67-18.67,18.67S.67,50.98.67,40.67c0-8.16,5.24-15.1,12.53-17.63V6h12v16.94Z"/>
      <g>
        <path class="cls-5" d="M2,42.04c0-8.16,5.24-15.1,12.53-17.63V7.38h10.67v-1.38h-12v17.03C5.9,25.57.67,32.51.67,40.67c0,5.39,2.28,10.24,5.93,13.65-2.86-3.28-4.6-7.57-4.6-12.27Z"/>
        <path class="cls-5" d="M26.53,24.32c2.58.85,4.92,2.26,6.86,4.07-1.87-2.13-4.21-3.84-6.86-4.95v.88Z"/>
      </g>
      <rect class="cls-2" x="24.67" y="35.33" width="2.67" height="2.67"/>
      <rect class="cls-2" x="20.67" y="35.33" width="2.67" height="2.67"/>
      <rect class="cls-2" x="16.67" y="35.33" width="2.67" height="2.67"/>
      <rect class="cls-2" x="12.67" y="35.33" width="2.67" height="2.67"/>
      <path class="cls-2" d="M19.33,60C8.67,60,0,51.33,0,40.67c0-8.07,5.02-15.28,12.53-18.1V6c0-.37.3-.67.67-.67s.67.3.67.67v17.03c0,.28-.18.54-.45.63-7.23,2.51-12.09,9.35-12.09,17,0,9.93,8.07,18,18,18s18-8.07,18-18c0-7.78-4.96-14.65-12.34-17.09-.27-.09-.46-.35-.46-.63V6c0-.37.3-.67.67-.67s.67.3.67.67v16.47c7.68,2.75,12.8,10.01,12.8,18.2,0,10.66-8.67,19.33-19.33,19.33Z"/>
      <path class="cls-2" d="M27.87,6.67H10.53c-.37,0-.67-.3-.67-.67V.67c0-.37.3-.67.67-.67h17.33c.37,0,.67.3.67.67v5.33c0,.37-.3.67-.67.67ZM11.2,5.33h16V1.33H11.2v4Z"/>
      <path class="cls-2" d="M19.2,56c-8.09,0-14.67-6.58-14.67-14.67,0-2.99.89-5.86,2.58-8.32,1.65-2.39,3.95-4.23,6.64-5.31.34-.14.73.03.87.37s-.03.73-.37.87c-5.09,2.04-8.38,6.9-8.38,12.38,0,7.35,5.98,13.33,13.33,13.33s12.95-5.61,13.32-12.64l-17.96.64c-.37.01-.68-.27-.69-.64-.01-.37.27-.68.64-.69l18.67-.67c.18,0,.36.06.49.19.13.13.2.3.2.48,0,8.09-6.58,14.67-14.67,14.67Z"/>
      <path class="cls-2" d="M38.07,20c-.12,0-.23-.03-.33-.09l-.07-.04-6.67-3.85c-.21-.12-.33-.34-.33-.58v-7.77c0-.24.13-.46.33-.58l6.73-3.89c.21-.12.46-.12.67,0l6.73,3.89c.21.12.33.34.33.58v7.77c0,.24-.13.46-.33.58l-6.73,3.89c-.1.06-.22.09-.33.09ZM32,15.06l6.07,3.5,6.07-3.5v-7l-6.07-3.5-6.07,3.5v7Z"/>
      <path class="cls-2" d="M44.73,31.55c-.12,0-.23-.03-.33-.09l-6.73-3.89c-.21-.12-.33-.34-.33-.58v-7.77c0-.24.13-.46.33-.58l6.73-3.89c.21-.12.46-.12.67,0l.07.04,6.67,3.85c.21.12.33.34.33.58v7.77c0,.24-.13.46-.33.58l-6.73,3.89c-.1.06-.22.09-.33.09ZM38.67,26.61l6.07,3.5,6.07-3.5v-7l-6.07-3.5-6.07,3.5v7Z"/>
      <path class="cls-2" d="M51.47,19.55c-.12,0-.23-.03-.33-.09l-6.73-3.89c-.21-.12-.33-.34-.33-.58v-7.77c0-.24.13-.46.33-.58l6.73-3.89c.21-.12.46-.12.67,0l6.73,3.89c.21.12.33.34.33.58v7.77c0,.24-.13.46-.33.58l-6.73,3.89c-.1.06-.22.09-.33.09ZM45.4,14.61l6.07,3.5,6.07-3.5v-7l-6.07-3.5-6.07,3.5v7.01Z"/>
    </g>
  </g>
</svg>