<?xml version="1.0" encoding="UTF-8"?>
<svg id="Layer_1" data-name="Layer 1" xmlns="http://www.w3.org/2000/svg" viewBox="0 0 56 56">
  <defs>
    <style>
      .cls-1 {
        fill: #cdd2d9;
      }

      .cls-2 {
        fill: #010101;
      }

      .cls-3 {
        fill: #979faa;
      }

      .cls-4 {
        fill: #f48270;
      }

      .cls-5 {
        fill: #e7e9ed;
      }

      .cls-6 {
        fill: #71cfed;
      }

      .cls-7 {
        fill: #aab2bd;
      }

      .cls-8 {
        fill: #d09f76;
      }

      .cls-9 {
        fill: #dfb28b;
      }
    </style>
  </defs>
  <g>
    <circle class="cls-6" cx="28" cy="28" r="20.77"/>
    <path class="cls-4" d="M28,11.74v2.71l-6.35,2.38c-.16-.84-.89-1.48-1.78-1.48-.31,0-.59.08-.84.22,0-.03.02-.05.03-.08l.72-2.53c.06-.21.09-.42.09-.65,0-.2-.03-.39-.07-.57h8.2Z"/>
    <polygon class="cls-4" points="20.77 3.61 20.77 6.32 15.97 7.01 15.63 3.61 20.77 3.61"/>
    <polygon class="cls-4" points="13.28 3.61 12.93 7.01 8.13 6.32 8.13 3.61 13.28 3.61"/>
    <path class="cls-4" d="M9.12,12.96l.72,2.53s.02.05.03.08c-.25-.14-.53-.22-.84-.22-.89,0-1.62.64-1.78,1.48L.9,14.45v-2.71h8.2c-.05.18-.07.37-.07.57,0,.23.03.44.09.65Z"/>
    <polygon class="cls-7" points="15.63 3.61 15.97 7.01 16.26 9.94 12.65 9.94 12.93 7.01 13.28 3.61 13.55 .9 15.35 .9 15.63 3.61"/>
    <path class="cls-1" d="M19.78,12.96l-.72,2.53s-.02.05-.03.08c-.2.66-.52,1.25-.96,1.73-.89,1.03-2.19,1.66-3.62,1.66-1.07,0-2.08-.35-2.89-.97-.27-.21-.51-.43-.73-.7-.43-.49-.76-1.07-.96-1.73,0-.03-.02-.05-.03-.08l-.72-2.53c-.06-.21-.09-.42-.09-.65,0-.2.03-.39.07-.57.11-.42.33-.8.62-1.11.43-.42,1.02-.7,1.68-.7h6.09c.07,0,.14,0,.22,0,1.01.09,1.85.83,2.09,1.8.05.18.07.37.07.57,0,.23-.03.44-.09.65Z"/>
    <path class="cls-3" d="M19.87,15.35c.89,0,1.62.64,1.78,1.48.02.11.03.22.03.33,0,.99-.81,1.81-1.81,1.81s-1.72-.73-1.8-1.66c.43-.49.76-1.07.96-1.73.25-.14.53-.22.84-.22Z"/>
    <path class="cls-3" d="M9.87,15.57c.2.66.52,1.25.96,1.73-.07.84-.71,1.53-1.54,1.63-.08.02-.17.03-.26.03-.99,0-1.81-.81-1.81-1.81,0-.11,0-.22.03-.33.16-.84.89-1.48,1.78-1.48.31,0,.59.08.84.22Z"/>
    <polygon class="cls-8" points="48.06 33.42 51.48 33.42 53.29 33.42 53.29 40.65 45.16 40.65 46.06 33.42 47.87 33.42 48.06 33.42"/>
    <rect class="cls-8" x="31.61" y="33.42" width="7.23" height="5.42"/>
    <polygon class="cls-9" points="40.65 38.84 40.65 44.26 29.81 44.26 29.81 38.84 31.61 38.84 38.84 38.84 40.65 38.84"/>
    <path class="cls-5" d="M53.29,40.65h1.81c0,4.13-2.3,7.7-5.69,9.55,0,0,0,0,0,0-.6-.3-1.32-.51-2.42-.51-3.16,0-3.16,1.81-6.32,1.81s-3.16-1.81-6.33-1.81c-1.39,0-2.17.35-2.87.74-.73-.45-1.37-1.02-1.91-1.7-.22-.27-.42-.57-.6-.88-.61-1.06-.95-2.29-.95-3.59h12.65l2.71-3.61h9.94Z"/>
    <path class="cls-6" d="M53.29,51.48v3.61c-2.54,0-3.99-.83-4.95-1.38-.62-.35-.75-.42-1.36-.42s-.75.07-1.37.42c-.96.55-2.41,1.38-4.95,1.38s-3.99-.83-4.96-1.38c-.61-.35-.75-.42-1.37-.42s-.75.07-1.36.42c-.97.55-2.42,1.38-4.96,1.38v-3.61c1.77,0,2.55-.57,3.45-1.07.7-.39,1.48-.74,2.87-.74,3.17,0,3.17,1.81,6.33,1.81s3.16-1.81,6.32-1.81c1.1,0,1.82.22,2.42.51,0,0,0,0,0,0,1.11.53,1.83,1.29,3.88,1.29Z"/>
  </g>
  <g>
    <path class="cls-2" d="M56,40.65v-.9h-1.81v-7.23h-1.81v-3.61h-1.81v3.61h-1.81v-1.81h-1.81v1.81h-1.7l-.9,7.23h-1.46l-1.35,1.81v-3.61h-1.81v-5.42h-9.03v5.42h-1.81v5.42h-1.81v.9c0,2.34.99,4.49,2.68,6.01-.46.19-1,.31-1.78.31v1.81c1.82,0,2.77-.54,3.61-1.02.74-.42,1.37-.78,2.72-.78s1.98.36,2.72.78c.84.48,1.79,1.02,3.61,1.02s2.77-.54,3.61-1.02c.74-.42,1.37-.78,2.71-.78s1.98.36,2.71.78c.84.48,1.79,1.02,3.61,1.02v-1.81c-.97,0-1.57-.19-2.1-.46,3-2.19,4.81-5.7,4.81-9.48ZM46.86,34.32h5.53v5.42h-6.2l.68-5.42ZM32.52,34.32h5.42v3.61h-5.42v-3.61ZM30.71,39.74h9.03v3.61h-9.03v-3.61ZM43.37,49.8c-.74.42-1.37.78-2.71.78s-1.98-.36-2.72-.78c-.84-.48-1.79-1.02-3.61-1.02-1.28,0-2.13.27-2.81.6-1.4-1.01-2.31-2.52-2.55-4.21h12.13l2.71-3.61h10.35c-.29,3.16-2.08,5.99-4.83,7.63-.6-.23-1.34-.4-2.35-.4-1.82,0-2.77.54-3.61,1.02Z"/>
    <path class="cls-2" d="M46.97,52.39c-.82,0-1.11.14-1.82.55-.93.53-2.2,1.26-4.51,1.26s-3.58-.73-4.51-1.26c-.71-.41-1-.55-1.82-.55s-1.11.14-1.82.55c-.93.53-2.21,1.26-4.51,1.26v1.81c2.78,0,4.42-.94,5.4-1.5q.54-.31.92-.31t.92.31c.98.56,2.62,1.5,5.4,1.5s4.42-.94,5.4-1.5q.54-.31.92-.31.38,0,.92.31c.98.56,2.62,1.5,5.4,1.5v-1.81c-2.3,0-3.57-.73-4.5-1.26-.71-.41-1-.55-1.81-.55Z"/>
    <rect class="cls-2" x="11.74" y="12.65" width="5.42" height="1.81"/>
    <path class="cls-2" d="M10.85,37.94h9.9c.66,3.53,1.66,6.55,2.92,8.61l1.54-.94c-1.12-1.83-2.02-4.51-2.63-7.67h4.52v-1.81h-4.83c-.34-2.25-.54-4.7-.58-7.23h12.61c0,.59-.01,1.19-.04,1.76l1.8.08c.03-.6.03-1.23.04-1.85h13.57v-.9c0-11.95-9.73-21.68-21.68-21.68-1.59,0-3.18.17-4.72.52l.39,1.76c1.41-.31,2.87-.47,4.33-.47,2.04,0,4.24,3.8,5.43,9.94h-11.01c.07-.19.11-.39.14-.6l6.35-2.38v-4.24h-8.49c-.54-1.07-1.64-1.81-2.91-1.81h-.42l-.12-1.25,4.73-.68V2.71h-5.23l-.27-2.71h-3.44l-.27,2.71h-5.23v4.4l4.73.68-.12,1.25h-.42c-1.28,0-2.37.74-2.91,1.81H0v4.24l6.35,2.38c.15,1.35,1.29,2.41,2.68,2.41.86,0,1.64-.42,2.14-1.06.94.67,2.08,1.06,3.28,1.06s2.34-.4,3.28-1.06c.5.65,1.27,1.06,2.14,1.06h13.87c.33,2.18.53,4.61.57,7.23h-12.6c.03-1.81.12-3.6.31-5.32l-1.8-.2c-.2,1.78-.29,3.64-.32,5.52h-11.73c.08-1.75.37-3.48.9-5.14l-1.72-.55c-.68,2.12-1.02,4.34-1.02,6.6,0,11.18,8.71,20.66,19.84,21.6l.15-1.8c-6.62-.56-12.29-4.42-15.46-9.87ZM27.1,13.83l-4.96,1.86c-.41-.63-1.08-1.07-1.86-1.19l.36-1.28c.05-.19.08-.38.1-.57h6.35v1.18ZM19.87,4.52v1.02l-3.1.44-.15-1.47h3.25ZM9.03,5.54v-1.02h3.25l-.15,1.47-3.1-.44ZM14.37,1.81h.17l.72,7.23h-1.62l.72-7.23ZM1.81,12.65h6.35c.02.19.05.38.1.57l.37,1.28c-.77.12-1.44.56-1.86,1.19l-4.96-1.86v-1.18ZM9.03,18.06c-.5,0-.9-.41-.9-.9,0-.55.5-.99,1.05-.88.18.44.4.86.67,1.23-.14.33-.45.56-.82.56ZM10.71,15.25l-.72-2.53c-.04-.13-.06-.27-.06-.4,0-.81.66-1.47,1.47-1.47h6.08c.81,0,1.47.66,1.47,1.47,0,.14-.02.27-.06.4l-.72,2.53c-.47,1.66-2.01,2.82-3.74,2.82s-3.26-1.16-3.74-2.82ZM19.05,17.51c.27-.38.49-.79.67-1.23.55-.1,1.05.34,1.05.88,0,.5-.4.9-.9.9-.37,0-.68-.23-.82-.56ZM20.44,36.13h-10.53c-1.02-2.23-1.62-4.67-1.74-7.23h11.71c.04,2.51.23,4.95.56,7.23ZM31.69,8.48c5.77,1.09,10.66,4.67,13.51,9.58h-9.94c-.74-4.01-1.94-7.47-3.57-9.58ZM35.56,19.87h10.57c1,2.22,1.61,4.66,1.73,7.23h-11.73c-.04-2.44-.23-4.9-.57-7.23Z"/>
    <path class="cls-2" d="M50.69,21.91l.56,2.09,3.73-6.39-1.56-.91-1.6,2.75c-1.74-4.83-4.93-9.06-9.15-12.06l-1.05,1.47c4.44,3.17,7.67,7.8,9.07,13.05Z"/>
    <path class="cls-2" d="M41.11,6.37c-.6-.37-1.23-.71-1.87-1.03l-.8,1.62c.6.3,1.18.62,1.74.96l.94-1.54Z"/>
    <path class="cls-2" d="M37.37,4.5c-.62-.24-1.25-.47-1.87-.66l-.53,1.73c.58.18,1.17.39,1.74.62l.67-1.68Z"/>
    <path class="cls-2" d="M5.31,34.09l-.56-2.09-3.73,6.39,1.56.91,1.6-2.75c1.74,4.83,4.93,9.06,9.15,12.06l1.05-1.47c-4.44-3.17-7.67-7.8-9.07-13.05Z"/>
    <path class="cls-2" d="M14.89,49.63c.6.37,1.23.71,1.87,1.03l.8-1.62c-.6-.3-1.18-.62-1.74-.96l-.94,1.54Z"/>
    <path class="cls-2" d="M18.63,51.5c.62.24,1.25.47,1.87.66l.53-1.73c-.58-.18-1.17-.39-1.74-.62l-.67,1.68Z"/>
  </g>
</svg>