<?xml version="1.0" encoding="UTF-8"?>
<svg id="Layer_1" data-name="Layer 1" xmlns="http://www.w3.org/2000/svg" viewBox="0 0 73.53 60">
  <defs>
    <style>
      .cls-1 {
        fill: #fedd8f;
      }

      .cls-2 {
        fill: #fcd268;
      }

      .cls-3 {
        fill: #fee8b4;
      }

      .cls-4 {
        fill: #fef3da;
      }

      .cls-5 {
        fill: #333;
      }
    </style>
  </defs>
  <path class="cls-1" d="M54.88,41.11c-.6.98-1.62,1.49-2.66,1.49-.58,0-1.13-.15-1.64-.46l.37.24c1.49.92,1.93,2.87,1.03,4.33-.6.97-1.62,1.49-2.66,1.49-.43,0-.85-.09-1.25-.27l.06.06c1.47.91,1.95,2.86,1.03,4.33-.6.98-1.62,1.49-2.68,1.49-.54,0-1.09-.13-1.58-.43,1.21.98,1.52,2.71.67,4.09-.94,1.5-2.89,1.91-4.32,1.03l-14.57-8.96-8.25-3.75-2.8-7.2L.6,30.04V6.6l23.89,12.96,7.26-4.54,6.1,1.62-2.44,9.15,18.46,11c1.46.89,1.92,2.86,1.01,4.32Z"/>
  <path class="cls-3" d="M54.88,41.11c-.49.8-1.28,1.29-2.11,1.44.22-1.22-.31-2.53-1.44-3.23l-18.46-11,2.44-9.15-4.06-.36-7.26,4.54L.6,10.51v-3.91l23.89,12.96,7.26-4.54,6.1,1.62-2.44,9.15,18.46,11c1.46.89,1.92,2.86,1.01,4.32Z"/>
  <path class="cls-2" d="M45.96,56.35c-.06.37-.21.76-.42,1.1-.94,1.5-2.89,1.91-4.32,1.03l-14.57-8.96-8.25-3.75-2.8-7.2L.58,30.02v-3.97l17.59,9.99,2.8,7.2,8.25,3.75,14.56,8.96c.51.31,1.07.46,1.65.46.18,0,.36-.01.54-.06Z"/>
  <path class="cls-3" d="M72.96.57v23.64l-11.77,5.66-7.34,6.94-18.46-11-1.21,3.65c-.89,2.71-3.3,4.61-6.18,4.84l-3.16.07,4.75-12.15,8.22-5.58h7.28L72.96.57Z"/>
  <path class="cls-4" d="M72.96.58v4.02l-25.75,14.85h-7.29l-8.22,5.57-3.62,9.23s.15.01-3.23.1l4.75-12.15,8.22-5.57h7.29L72.96.58Z"/>
  <polygon class="cls-1" points="72.96 20.45 72.96 24.2 61.19 29.85 53.86 36.78 50.75 34.94 59.1 27.03 72.96 20.45"/>
  <path class="cls-3" d="M22.33,49.4c-.27.46-.86.61-1.32.34l-3.65-2.14c-.46-.27-.61-.86-.34-1.32l2.14-3.65c.27-.46.86-.61,1.32-.34l3.65,2.14c.46.27.61.86.34,1.32"/>
  <path class="cls-3" d="M29.71,48.93l-2.14,3.65c-.27.46-.86.61-1.32.34l-3.65-2.14c-.46-.27-.61-.86-.34-1.32l2.14-3.65c.27-.46.86-.61,1.32-.34l3.65,2.14c.46.27.61.86.34,1.32Z"/>
  <path class="cls-3" d="M34.95,52.1l-2.14,3.65c-.27.46-.86.61-1.32.34l-3.63-2.14c-.46-.27-.61-.86-.34-1.32l2.14-3.65c.27-.46.86-.61,1.32-.34l3.65,2.14c.45.27.6.86.33,1.32Z"/>
  <path class="cls-3" d="M40.2,55.27l-2.14,3.65c-.27.46-.86.61-1.32.34l-3.65-2.14c-.46-.27-.61-.86-.34-1.32l2.14-3.65c.27-.46.86-.61,1.32-.34l3.65,2.14c.45.27.61.86.34,1.32Z"/>
  <path class="cls-5" d="M73.26.08c-.18-.1-.4-.1-.58,0l-27.71,15.99h-7.05c-6.22-1.59-6.12-1.79-6.5-1.53l-6.95,4.36L.86,6.09c-.34-.21-.86.04-.86.52v23.53c0,.31.25.58.58.58l14.57,8.29,2.17,5.61-.82,1.4c-.42.71-.21,1.67.55,2.11l3.65,2.14c.45.27.91.19.92.19.12.34.34.64.67.83l3.65,2.14c.49.28.91.19.92.19.12.34.34.64.67.83l3.65,2.14c.45.27.91.19.92.19.12.34.34.64.67.83l3.65,2.14c.74.42,1.67.19,2.1-.55l.73-1.24,1.65,1.01c1.73,1.04,4,.54,5.11-1.22.65-1.07.73-2.32.28-3.39,1.37.07,2.6-.63,3.3-1.76.68-1.1.79-2.56.04-3.85,1.15-.12,2.17-.74,2.78-1.74.76-1.24.73-2.68.06-3.85,1.18-.09,2.23-.73,2.86-1.76.95-1.53.64-3.51-.63-4.67l6.77-6.4,11.7-5.61c.21-.09.34-.3.34-.54V.57c.01-.21-.09-.39-.27-.49ZM21.73,49.21c-.19.12-.34.1-.43.03l-3.65-2.14c-.16-.07-.27-.36-.13-.52l2.14-3.65c.07-.16.36-.27.52-.13l3.65,2.14c.16.09.22.28.16.45-.21.31-2.22,3.78-2.26,3.83ZM26.98,52.38c-.19.12-.34.1-.43.03l-3.65-2.14c-.18-.1-.24-.34-.13-.52l2.14-3.65c.09-.16.37-.27.54-.13l3.65,2.14c.16.09.22.28.16.45-.06.09-2.28,3.78-2.28,3.83ZM32.21,55.55c-.19.12-.34.1-.43.03l-3.63-2.13c-.18-.1-.24-.34-.13-.52l2.14-3.65c.09-.16.37-.27.54-.13l3.65,2.14c.16.07.24.31.16.45-.16.25-2.26,3.78-2.29,3.81ZM39.7,54.97l-2.14,3.65c-.07.16-.36.27-.52.13l-3.65-2.14c-.16-.07-.27-.36-.13-.52l2.14-3.65c.13-.21.39-.24.52-.13l3.65,2.14c.16.07.24.3.13.52ZM54.37,40.82c-.46.76-1.27,1.21-2.17,1.21-.48,0-.92-.13-1.34-.39h-.01l-5.94-3.56c-.27-.16-.63-.07-.8.19-.16.28-.07.64.19.8.03.01-.49-.3,6.33,3.81,1.19.73,1.59,2.28.83,3.54-.46.76-1.28,1.21-2.17,1.21-.36,0-.67-.07-1-.21l-7-4.27c-.27-.16-.63-.07-.8.19-.16.27-.07.63.19.8.01.01,7.08,4.35,7.1,4.35,1.18.73,1.62,2.28.85,3.53-.46.76-1.28,1.21-2.19,1.21-.45,0-.89-.12-1.27-.34l-6.36-4.03c-.27-.18-.63-.09-.8.18-.18.27-.09.63.18.8l6.31,4.02c.98.82,1.21,2.2.54,3.32-.79,1.27-2.41,1.52-3.51.83l-1.67-1.03.83-1.41c.43-.73.18-1.68-.55-2.11l-3.65-2.14c-.3-.16-.61-.24-.92-.21-.12-.34-.36-.64-.67-.83l-3.65-2.14c-.28-.16-.61-.24-.94-.19-.12-.34-.33-.64-.65-.83l-3.65-2.14c-.28-.16-.61-.24-.92-.21-.12-.34-.34-.64-.67-.83l-3.65-2.14c-.71-.42-1.67-.21-2.11.55l-.57.97-1.92-4.94c-.04-.12-.13-.22-.25-.3L1.18,29.67V7.56c24.23,13.02,23.04,12.82,23.61,12.49l7.04-4.41,4.63,1.24-7.16,4.85c-.1.06-.18.16-.21.27l-4.75,12.15c-.13.31.03.76.55.8l3.19-.07c3.1-.24,5.72-2.29,6.68-5.24l.97-2.95,17.82,10.61c1.19.73,1.59,2.32.83,3.51ZM72.38,23.83l-11.45,5.49c-.06.03-.12.06-.16.1l-7.01,6.62-17.27-10.28,4.49-2.89c.27-.18.34-.54.18-.8-.18-.27-.54-.34-.8-.18-5.95,3.8-5.39,3.42-5.54,3.71l-1.21,3.65c-.82,2.5-3.04,4.24-5.64,4.44l-2.28.06,4.36-11.15,7.92-5.37c7.38-.03,7.11.07,7.4-.07L72.35,1.6v22.24h.03Z"/>
</svg>