<?xml version="1.0" encoding="UTF-8"?>
<svg id="Layer_1" data-name="Layer 1" xmlns="http://www.w3.org/2000/svg" xmlns:xlink="http://www.w3.org/1999/xlink" viewBox="0 0 1274.99 360.29">
  <defs>
    <style>
      .cls-1, .cls-2, .cls-3, .cls-4, .cls-5, .cls-6, .cls-7, .cls-8, .cls-9, .cls-10, .cls-11 {
        fill: none;
      }

      .cls-12 {
        fill: #3b9e76;
      }

      .cls-13 {
        fill: url(#linear-gradient-3);
        stroke: url(#linear-gradient-4);
        stroke-width: 5.5px;
      }

      .cls-13, .cls-14, .cls-3, .cls-15, .cls-5, .cls-6, .cls-7, .cls-16, .cls-17, .cls-8, .cls-10, .cls-11 {
        stroke-miterlimit: 10;
      }

      .cls-14 {
        stroke: #3484c6;
        stroke-width: 1.47px;
      }

      .cls-14, .cls-15, .cls-18, .cls-16, .cls-17 {
        fill: #fff;
      }

      .cls-2 {
        stroke: #272626;
      }

      .cls-2, .cls-4, .cls-9 {
        stroke-linecap: round;
        stroke-linejoin: round;
      }

      .cls-2, .cls-9 {
        opacity: .6;
        stroke-width: 3.07px;
      }

      .cls-2, .cls-9, .cls-19 {
        isolation: isolate;
      }

      .cls-20 {
        fill: #fbae17;
      }

      .cls-3 {
        stroke: #3a3b3a;
      }

      .cls-3, .cls-17, .cls-8 {
        stroke-width: 4.15px;
      }

      .cls-21 {
        fill: #dea63d;
      }

      .cls-22 {
        fill: #b4c5d3;
      }

      .cls-4 {
        stroke-dasharray: 10.99 10.99;
      }

      .cls-4, .cls-15, .cls-9, .cls-11 {
        stroke: #010101;
      }

      .cls-4, .cls-16 {
        stroke-width: 2.21px;
      }

      .cls-23 {
        fill: url(#linear-gradient-8);
      }

      .cls-24 {
        fill: url(#linear-gradient-7);
      }

      .cls-25 {
        fill: url(#linear-gradient-5);
      }

      .cls-26 {
        fill: url(#linear-gradient-6);
      }

      .cls-27 {
        fill: url(#linear-gradient-9);
      }

      .cls-28 {
        fill: #8b50a0;
      }

      .cls-15 {
        stroke-width: 2.03px;
      }

      .cls-29 {
        fill: #092544;
      }

      .cls-30 {
        fill: #a953a0;
      }

      .cls-31 {
        fill: #4757a4;
      }

      .cls-32 {
        fill: #0c1338;
      }

      .cls-33 {
        fill: #ef3d23;
      }

      .cls-5 {
        stroke-width: 3.72px;
      }

      .cls-5, .cls-8 {
        stroke: #171717;
      }

      .cls-34 {
        fill: #ed387d;
      }

      .cls-6 {
        stroke: url(#linear-gradient-2);
        stroke-width: 36.76px;
      }

      .cls-35 {
        fill: #e42527;
      }

      .cls-36 {
        fill: #05b5a0;
      }

      .cls-7 {
        stroke: #775421;
      }

      .cls-7, .cls-10 {
        stroke-width: 2.04px;
      }

      .cls-37 {
        fill: #eaab28;
      }

      .cls-16 {
        stroke: #96b7c2;
      }

      .cls-17 {
        stroke: #aabccc;
      }

      .cls-38 {
        fill: url(#linear-gradient-10);
      }

      .cls-39 {
        fill: url(#linear-gradient-11);
      }

      .cls-40 {
        fill: url(#linear-gradient-12);
      }

      .cls-41 {
        fill: url(#linear-gradient-13);
      }

      .cls-42 {
        fill: url(#linear-gradient-19);
      }

      .cls-43 {
        fill: url(#linear-gradient-14);
      }

      .cls-44 {
        fill: url(#linear-gradient-21);
      }

      .cls-45 {
        fill: url(#linear-gradient-20);
      }

      .cls-46 {
        fill: url(#linear-gradient-22);
      }

      .cls-47 {
        fill: url(#linear-gradient-23);
      }

      .cls-48 {
        fill: url(#linear-gradient-25);
      }

      .cls-49 {
        fill: url(#linear-gradient-15);
      }

      .cls-50 {
        fill: url(#linear-gradient-16);
      }

      .cls-51 {
        fill: url(#linear-gradient-17);
      }

      .cls-52 {
        fill: url(#linear-gradient-18);
      }

      .cls-53 {
        fill: url(#linear-gradient-24);
      }

      .cls-54 {
        fill: #6c7fbe;
      }

      .cls-10 {
        stroke: #afb6b7;
      }

      .cls-55 {
        opacity: .4;
      }

      .cls-56, .cls-19 {
        opacity: .2;
      }

      .cls-57 {
        fill: #e8882f;
      }

      .cls-11 {
        stroke-width: 2px;
      }

      .cls-58 {
        fill: #4c92cf;
      }

      .cls-19 {
        fill: url(#linear-gradient);
      }

      .cls-59 {
        fill: #ef4423;
      }

      .cls-60 {
        clip-path: url(#clippath);
      }

      .cls-61 {
        fill: #e3f4fd;
      }
    </style>
    <clipPath id="clippath">
      <rect class="cls-1" width="1274.99" height="360.29"/>
    </clipPath>
    <linearGradient id="linear-gradient" x1="1411.42" y1="-136.63" x2="1411.42" y2="-276.45" gradientTransform="translate(-242.5 -4.22) scale(1 -1)" gradientUnits="userSpaceOnUse">
      <stop offset="0" stop-color="#a5b6de"/>
      <stop offset="0" stop-color="#4b81c2"/>
      <stop offset=".79" stop-color="#fff" stop-opacity="0"/>
    </linearGradient>
    <linearGradient id="linear-gradient-2" x1="747.52" y1="-190.57" x2="987.95" y2="-190.57" gradientTransform="translate(-242.5 -4.22) scale(1 -1)" gradientUnits="userSpaceOnUse">
      <stop offset="0" stop-color="#3e6ab3"/>
      <stop offset=".1" stop-color="#476cb4" stop-opacity=".89"/>
      <stop offset=".55" stop-color="#a174b3" stop-opacity=".41"/>
      <stop offset=".86" stop-color="#e479b0" stop-opacity=".12"/>
      <stop offset="1" stop-color="#f27baa" stop-opacity="0"/>
    </linearGradient>
    <linearGradient id="linear-gradient-3" x1="170.72" y1="188.63" x2="384.43" y2="188.63" gradientUnits="userSpaceOnUse">
      <stop offset="0" stop-color="#dbe8f6"/>
      <stop offset=".3" stop-color="#c0d2ec" stop-opacity=".89"/>
      <stop offset=".55" stop-color="#f6eaf3"/>
      <stop offset=".92" stop-color="#edc2db" stop-opacity=".82"/>
      <stop offset="1" stop-color="#fff"/>
    </linearGradient>
    <linearGradient id="linear-gradient-4" x1="413.22" y1="-192.85" x2="626.93" y2="-192.85" xlink:href="#linear-gradient-2"/>
    <linearGradient id="linear-gradient-5" x1="425.04" y1="-171.23" x2="425.04" y2="-220.79" gradientTransform="translate(-242.5 -4.22) scale(1 -1)" gradientUnits="userSpaceOnUse">
      <stop offset="0" stop-color="#dbe8f6"/>
      <stop offset=".3" stop-color="#c0d2ec" stop-opacity=".89"/>
      <stop offset=".55" stop-color="#f6eaf3"/>
      <stop offset=".86" stop-color="#fef5f9" stop-opacity=".82"/>
      <stop offset="1" stop-color="#fff"/>
    </linearGradient>
    <linearGradient id="linear-gradient-6" x1="461.08" y1="-162.27" x2="461.08" y2="-224.77" gradientTransform="translate(-242.5 -4.22) scale(1 -1)" gradientUnits="userSpaceOnUse">
      <stop offset="0" stop-color="#dbe8f6"/>
      <stop offset=".3" stop-color="#c0d2ec" stop-opacity=".89"/>
      <stop offset=".55" stop-color="#f6eaf3"/>
      <stop offset=".86" stop-color="#fef5f9" stop-opacity=".82"/>
      <stop offset="1" stop-color="#fff"/>
    </linearGradient>
    <linearGradient id="linear-gradient-7" x1="558.6" y1="-161.04" x2="558.6" y2="-223.55" gradientTransform="translate(-242.5 -4.22) scale(1 -1)" gradientUnits="userSpaceOnUse">
      <stop offset="0" stop-color="#dbe8f6"/>
      <stop offset=".3" stop-color="#c0d2ec" stop-opacity=".89"/>
      <stop offset=".55" stop-color="#f6eaf3"/>
      <stop offset=".86" stop-color="#fef5f9" stop-opacity=".82"/>
      <stop offset="1" stop-color="#fff"/>
    </linearGradient>
    <linearGradient id="linear-gradient-8" x1="589.07" y1="-160.33" x2="589.07" y2="-222.84" xlink:href="#linear-gradient-7"/>
    <linearGradient id="linear-gradient-9" x1="510.47" y1="-169.14" x2="510.47" y2="-218.55" xlink:href="#linear-gradient-6"/>
    <linearGradient id="linear-gradient-10" x1="489.74" y1="-161.02" x2="489.74" y2="-223.52" xlink:href="#linear-gradient-6"/>
    <linearGradient id="linear-gradient-11" x1="442.33" y1="-171.23" x2="442.33" y2="-220.79" gradientTransform="translate(-242.5 -4.22) scale(1 -1)" gradientUnits="userSpaceOnUse">
      <stop offset="0" stop-color="#dbe8f6"/>
      <stop offset=".3" stop-color="#c0d2ec" stop-opacity=".89"/>
      <stop offset=".55" stop-color="#f6eaf3"/>
      <stop offset=".86" stop-color="#fef5f9" stop-opacity=".82"/>
      <stop offset="1" stop-color="#fff"/>
    </linearGradient>
    <linearGradient id="linear-gradient-12" x1="597.47" y1="-169.2" x2="597.47" y2="-210.31" xlink:href="#linear-gradient-7"/>
    <linearGradient id="linear-gradient-13" x1="616.06" y1="-169.2" x2="616.06" y2="-210.31" xlink:href="#linear-gradient-7"/>
    <linearGradient id="linear-gradient-14" x1="539.84" y1="-170" x2="539.84" y2="-219.57" xlink:href="#linear-gradient-7"/>
    <linearGradient id="linear-gradient-15" x1="433.31" y1="-144.88" x2="433.31" y2="-246.68" gradientTransform="translate(-242.5 -4.22) scale(1 -1)" gradientUnits="userSpaceOnUse">
      <stop offset="0" stop-color="#dbe8f6"/>
      <stop offset=".3" stop-color="#c0d2ec" stop-opacity=".89"/>
      <stop offset=".55" stop-color="#f6eaf3"/>
      <stop offset=".86" stop-color="#fef5f9" stop-opacity=".62"/>
      <stop offset="1" stop-color="#fff" stop-opacity=".5"/>
    </linearGradient>
    <linearGradient id="linear-gradient-16" x1="530.83" y1="-131.07" x2="530.83" y2="-258.04" xlink:href="#linear-gradient-7"/>
    <linearGradient id="linear-gradient-17" x1="568.68" y1="-130.03" x2="568.68" y2="-257.01" xlink:href="#linear-gradient-7"/>
    <linearGradient id="linear-gradient-18" x1="470.45" y1="-145.77" x2="470.45" y2="-247.56" xlink:href="#linear-gradient-6"/>
    <linearGradient id="linear-gradient-19" x1="519.83" y1="-146.09" x2="519.83" y2="-247.89" gradientTransform="translate(-242.5 -4.22) scale(1 -1)" gradientUnits="userSpaceOnUse">
      <stop offset="0" stop-color="#dbe8f6"/>
      <stop offset=".3" stop-color="#c0d2ec" stop-opacity=".89"/>
      <stop offset=".55" stop-color="#f6eaf3"/>
      <stop offset=".86" stop-color="#fef5f9" stop-opacity=".82"/>
      <stop offset="1" stop-color="#fff"/>
    </linearGradient>
    <linearGradient id="linear-gradient-20" x1="451.7" y1="-155.73" x2="451.7" y2="-235.83" gradientTransform="translate(-242.5 -4.22) scale(1 -1)" gradientUnits="userSpaceOnUse">
      <stop offset="0" stop-color="#dbe8f6"/>
      <stop offset=".3" stop-color="#c0d2ec" stop-opacity=".89"/>
      <stop offset=".55" stop-color="#f6eaf3"/>
      <stop offset=".86" stop-color="#fef5f9" stop-opacity=".82"/>
      <stop offset="1" stop-color="#fff" stop-opacity=".5"/>
    </linearGradient>
    <linearGradient id="linear-gradient-21" x1="549.21" y1="-154.5" x2="549.21" y2="-234.61" xlink:href="#linear-gradient-7"/>
    <linearGradient id="linear-gradient-22" x1="579.68" y1="-153.8" x2="579.68" y2="-233.9" xlink:href="#linear-gradient-7"/>
    <linearGradient id="linear-gradient-23" x1="608.11" y1="-152.79" x2="608.11" y2="-232.9" xlink:href="#linear-gradient-7"/>
    <linearGradient id="linear-gradient-24" x1="501.08" y1="-156.06" x2="501.08" y2="-236.16" xlink:href="#linear-gradient-6"/>
    <linearGradient id="linear-gradient-25" x1="479.53" y1="-129" x2="479.53" y2="-258.04" xlink:href="#linear-gradient-6"/>
  </defs>
  <g class="cls-60">
    <g>
      <g class="cls-56">
        <path class="cls-18" d="M1244.69,0h-494.53c-6.13,0-11.11,4.98-11.11,11.12v338.06c0,6.14,4.97,11.12,11.11,11.12h494.53c6.13,0,11.11-4.98,11.11-11.12V11.12c0-6.14-4.97-11.12-11.11-11.12Z"/>
      </g>
      <path class="cls-32" d="M1263.5,25.52h-491.4c-6.35,0-11.5,5.15-11.5,11.5v311.77c0,6.35,5.15,11.5,11.5,11.5h491.4c6.35,0,11.49-5.15,11.49-11.5V37.02c0-6.35-5.15-11.5-11.49-11.5Z"/>
      <path class="cls-15" d="M1257.36,14.75h-497.39c-3.95,0-7.15,3.21-7.15,7.16v321.54c0,3.95,3.2,7.16,7.15,7.16h497.39c3.95,0,7.15-3.2,7.15-7.16V21.91c0-3.95-3.2-7.16-7.15-7.16Z"/>
      <path class="cls-29" d="M761.51,15.81h495.45c1.88,0,3.69.75,5.01,2.08,1.33,1.33,2.08,3.14,2.08,5.02v29.58h-509.63v-29.58c0-1.88.75-3.69,2.08-5.02,1.33-1.33,3.13-2.08,5.01-2.08Z"/>
      <path class="cls-59" d="M766.36,40.22c2.56,0,4.63-2.07,4.63-4.63s-2.07-4.63-4.63-4.63-4.63,2.07-4.63,4.63,2.07,4.63,4.63,4.63Z"/>
      <path class="cls-20" d="M781.71,40.22c2.56,0,4.63-2.07,4.63-4.63s-2.07-4.63-4.63-4.63-4.63,2.07-4.63,4.63,2.07,4.63,4.63,4.63Z"/>
      <path class="cls-36" d="M797.07,40.22c2.56,0,4.63-2.07,4.63-4.63s-2.07-4.63-4.63-4.63-4.63,2.07-4.63,4.63,2.07,4.63,4.63,4.63Z"/>
      <g class="cls-55">
        <path class="cls-22" d="M915.43,73.06h-140.69v131.56h140.69V73.06Z"/>
      </g>
      <g class="cls-55">
        <path class="cls-22" d="M1083.8,73.06h-149.16v131.56h149.16V73.06Z"/>
      </g>
      <g class="cls-55">
        <path class="cls-22" d="M1247.43,73.06h-142.6v131.56h142.6V73.06Z"/>
      </g>
      <path class="cls-16" d="M910.11,68.62h-140.69v130.19h140.69V68.62Z"/>
      <path class="cls-2" d="M785.84,83.21l90.31-.24"/>
      <path class="cls-2" d="M785.84,91.71l30.4.11"/>
      <path class="cls-20" d="M862.07,99.46l-30.58,42.18,48.49,19.43s15.91-39.78-17.91-61.62Z"/>
      <path class="cls-10" d="M862.59,163.89c-10.12,19.84-34.24,28.03-53.83,17.87-9.45-4.9-16.58-13.34-19.84-23.49-3.25-10.14-2.37-21.16,2.47-30.65,10.12-19.84,34.24-28.03,53.83-17.88"/>
      <path class="cls-7" d="M857.38,100.96l-30.59,42.17,48.49,19.43s15.9-40.05-17.9-61.6Z"/>
      <path class="cls-16" d="M1242.05,68.62h-145.05v130.35h145.05V68.62Z"/>
      <path class="cls-9" d="M1109.56,84.89l82.95.18"/>
      <path class="cls-9" d="M1109.57,93.62l27.91.25"/>
      <path class="cls-58" d="M1097.18,195.94c4.83-9.5,10.11-19.71,15.14-29.04,12.05,1.46,24.58,3.64,36.61,5.37,5.47-4.83,15.73-13.48,21.76-18.82l.12-.1h.17c5.83-.18,11.67-.35,17.5-.45,4.34-.1,13.15-.26,17.5-.29l-.43.16c5.11-4.21,12.26-10.09,17.45-14.32,5.86-4.57,11.81-9.84,17.71-13.97-11.17,9.81-23.05,19.93-34.46,29.46-11.45.21-23.86.31-35.26.29l.3-.11c-3.72,3.07-13.18,10.83-16.74,13.83-1.87,1.56-3.75,3.13-5.59,4.72-3.06-.39-6.13-.81-9.19-1.16-8.8-1.02-18.51-2.19-27.23-3.51l.56-.29c-3.75,6.85-7.92,14.39-11.79,21.22l-4.02,7.03-.12-.06v.03Z"/>
      <path class="cls-19" d="M1096.51,198.97l16.54-30.77,36.58,5.15,21.27-18.83h36.26l34.16-30.05-.26,74.5h-144.56Z"/>
      <g class="cls-55">
        <path class="cls-22" d="M1247.43,223.81h-467.94v112.74h467.94v-112.74Z"/>
      </g>
      <path class="cls-16" d="M1237.37,217.84h-467.94v112.74h467.94v-112.74Z"/>
      <path class="cls-9" d="M787.75,232.53l94.31.15"/>
      <path class="cls-9" d="M787.75,240.68l40.8.19"/>
      <path class="cls-14" d="M1112.71,169.68c1.06,0,1.92-.86,1.92-1.92s-.86-1.92-1.92-1.92-1.92.86-1.92,1.92.86,1.92,1.92,1.92Z"/>
      <path class="cls-14" d="M1149.12,173.51c1.06,0,1.92-.86,1.92-1.92s-.86-1.92-1.92-1.92-1.92.86-1.92,1.92.86,1.92,1.92,1.92Z"/>
      <path class="cls-14" d="M1170.89,155.84c1.06,0,1.92-.86,1.92-1.92s-.86-1.92-1.92-1.92-1.92.86-1.92,1.92.86,1.92,1.92,1.92Z"/>
      <path class="cls-14" d="M1206.74,154.52c1.06,0,1.92-.86,1.92-1.92s-.86-1.92-1.92-1.92-1.92.86-1.92,1.92.86,1.92,1.92,1.92Z"/>
      <path class="cls-11" d="M753.51,53.18h510.53"/>
      <path class="cls-16" d="M1080.04,68.62h-152.71v130.19h152.71V68.62Z"/>
      <path class="cls-2" d="M942.19,80.32l91.08-.24"/>
      <path class="cls-2" d="M942.23,87.46l30.65.11"/>
      <path class="cls-21" d="M1004.85,206.56s.03-.02.05-.03c.01-.02.02-.04.02-.05s0-.04-.02-.05c-.01-.02-.03-.03-.05-.03-.1,0-.1.18,0,.18Z"/>
      <path class="cls-61" d="M948.71,174.95c-.81,0-1.59-.32-2.17-.9-.57-.58-.9-1.36-.9-2.17v-56.84c0-.81.32-1.59.9-2.17.58-.58,1.36-.9,2.17-.9s1.59.32,2.17.9c.58.58.9,1.36.9,2.17v56.87c0,.81-.34,1.58-.91,2.15-.57.57-1.35.89-2.16.89Z"/>
      <path class="cls-31" d="M948.71,175.21c-1.67,0-3.06-1.79-3.06-4v-48.38c0-2.21,1.36-4,3.06-4s3.07,1.79,3.07,4v48.38c-.04,2.21-1.39,4-3.07,4Z"/>
      <path class="cls-61" d="M960.82,174.95c-.81,0-1.59-.32-2.17-.9-.57-.58-.9-1.36-.9-2.17v-56.84c0-.81.32-1.59.9-2.17.57-.58,1.35-.9,2.17-.9s1.59.32,2.17.9c.57.58.9,1.36.9,2.17v56.87c0,.81-.34,1.58-.91,2.15-.57.57-1.35.89-2.16.89Z"/>
      <path class="cls-37" d="M960.82,175.21c-.43-.03-.86-.15-1.24-.34-.39-.19-.74-.46-1.02-.79-.29-.33-.5-.71-.64-1.12-.14-.41-.19-.85-.16-1.28v-56.15c-.03-.43.02-.87.16-1.28.14-.41.35-.79.64-1.12.28-.33.63-.6,1.02-.79.39-.19.81-.31,1.24-.34.43.03.86.14,1.24.34.39.19.74.46,1.02.79.29.33.5.71.64,1.12.14.41.19.85.16,1.28v56.15c.03.43-.02.87-.16,1.28-.14.41-.35.79-.64,1.12-.28.33-.63.6-1.02.79-.39.19-.81.31-1.24.34Z"/>
      <path class="cls-61" d="M972.93,174.95c-.81,0-1.59-.32-2.17-.9-.57-.58-.9-1.36-.9-2.17v-56.84c0-.81.32-1.59.9-2.17.57-.58,1.35-.9,2.17-.9s1.59.32,2.17.9c.57.58.9,1.36.9,2.17v56.87c0,.81-.33,1.58-.91,2.15-.57.57-1.35.89-2.16.89Z"/>
      <path class="cls-36" d="M972.93,175.21c-1.67,0-3.06-2.17-3.06-4.83v-44.62c0-2.67,1.35-4.84,3.06-4.84s3.06,2.17,3.06,4.84v44.62c-.04,2.71-1.39,4.83-3.06,4.83Z"/>
      <path class="cls-61" d="M985.03,174.95c-.81,0-1.59-.32-2.17-.9-.57-.58-.9-1.36-.9-2.17v-56.84c0-.81.32-1.59.9-2.17.57-.58,1.35-.9,2.17-.9s1.59.32,2.17.9c.57.58.9,1.36.9,2.17v56.87c0,.81-.33,1.58-.91,2.15-.57.57-1.35.89-2.16.89Z"/>
      <path class="cls-54" d="M985.03,175.21c-.42-.01-.83-.1-1.21-.27-.38-.17-.72-.41-1.01-.72-.29-.3-.51-.66-.65-1.05s-.21-.81-.2-1.22v-52.02c-.02-.42.05-.83.2-1.22s.37-.75.65-1.05c.29-.3.63-.55,1.01-.72.38-.17.79-.26,1.21-.27.42.01.83.11,1.21.28.38.17.72.42,1.01.72.29.3.51.66.65,1.05.15.39.21.81.2,1.22v52.04c.01.42-.06.83-.21,1.22-.15.39-.37.74-.65,1.04-.28.3-.62.55-1,.71-.38.17-.79.26-1.2.28Z"/>
      <path class="cls-61" d="M997.14,174.95c-.81,0-1.59-.32-2.17-.9-.57-.58-.9-1.36-.9-2.17v-56.84c0-.81.32-1.59.9-2.17.57-.58,1.35-.9,2.17-.9s1.59.32,2.17.9c.57.58.9,1.36.9,2.17v56.87c0,.81-.33,1.58-.91,2.15-.57.57-1.35.89-2.16.89Z"/>
      <path class="cls-57" d="M997.14,175.21c-.43-.02-.84-.13-1.23-.31-.38-.18-.73-.44-1.01-.76-.28-.32-.5-.69-.65-1.09-.14-.4-.2-.83-.18-1.25v-43.97c-.02-.43.04-.85.18-1.25.14-.4.36-.77.65-1.09.29-.32.63-.58,1.01-.76.39-.18.8-.29,1.23-.31.43.02.84.13,1.23.31.39.18.73.44,1.01.76.28.32.5.69.65,1.09.14.4.2.83.18,1.25v43.97c.02.43-.04.85-.18,1.25-.14.4-.36.77-.65,1.09-.29.32-.63.57-1.01.76-.38.18-.8.29-1.23.31Z"/>
      <path class="cls-61" d="M1009.25,174.95c-.81,0-1.59-.32-2.17-.9-.57-.58-.9-1.36-.9-2.17v-56.84c0-.81.32-1.59.9-2.17.57-.58,1.36-.9,2.17-.9s1.59.32,2.17.9c.57.58.9,1.36.9,2.17v56.87c0,.81-.34,1.58-.91,2.15s-1.35.89-2.16.89Z"/>
      <path class="cls-30" d="M1009.25,174.95c-.86-.08-1.65-.48-2.22-1.13-.57-.65-.87-1.49-.84-2.35v-35.19c0-2.44,1.35-4.09,3.07-4.09s3.06,1.7,3.06,3.8v35.17c-.03,2.07-1.39,3.78-3.06,3.78Z"/>
      <path class="cls-61" d="M1021.36,174.95c-.81,0-1.59-.32-2.17-.9-.57-.58-.9-1.36-.9-2.17v-56.84c0-.81.32-1.59.9-2.17.57-.58,1.35-.9,2.17-.9s1.59.32,2.17.9c.57.58.9,1.36.9,2.17v56.87c0,.81-.33,1.58-.91,2.15-.57.57-1.35.89-2.16.89Z"/>
      <path class="cls-33" d="M1021.36,175.21c-1.66,0-3.06-.85-3.06-1.9v-32.12c0-1.02,1.36-1.91,3.06-1.91s3.06.86,3.06,1.91v32.12c0,1.05-1.4,1.9-3.06,1.9Z"/>
      <path class="cls-12" d="M1033.46,174.95c-.81,0-1.59-.32-2.17-.9-.57-.58-.9-1.36-.9-2.17v-56.84c0-.81.32-1.59.9-2.17.57-.58,1.35-.9,2.17-.9s1.59.32,2.17.9c.57.58.9,1.36.9,2.17v56.87c0,.81-.33,1.58-.91,2.15-.57.57-1.35.89-2.16.89Z"/>
      <path class="cls-12" d="M1033.46,175.21c-.81,0-1.59-.32-2.17-.9-.57-.58-.9-1.36-.9-2.17v-22.19c0-.81.32-1.59.9-2.17.57-.57,1.35-.9,2.17-.9s1.59.32,2.17.9c.57.58.9,1.36.9,2.17v22.22c0,.81-.33,1.58-.91,2.15-.57.57-1.35.89-2.16.89Z"/>
      <path class="cls-61" d="M1057.68,174.95c-.81,0-1.59-.32-2.17-.9-.58-.58-.9-1.36-.9-2.17v-56.84c0-.81.32-1.59.9-2.17.57-.58,1.35-.9,2.17-.9s1.59.32,2.17.9c.57.58.9,1.36.9,2.17v56.87c0,.81-.33,1.58-.91,2.15-.57.57-1.35.89-2.16.89Z"/>
      <path class="cls-28" d="M1057.68,174.95c-.77.02-1.52-.26-2.09-.77-.57-.52-.92-1.23-.98-2v-28c-.03-.42.02-.85.16-1.25.14-.4.36-.77.65-1.08s.64-.56,1.03-.73c.39-.17.81-.26,1.23-.25.81,0,1.59.32,2.17.9.57.58.9,1.36.9,2.17v28c-.02.8-.35,1.57-.92,2.13-.57.56-1.34.88-2.15.88Z"/>
      <path class="cls-61" d="M1045.57,174.95c-.81,0-1.59-.32-2.17-.9-.57-.58-.9-1.36-.9-2.17v-56.84c0-.81.32-1.59.9-2.17.57-.58,1.35-.9,2.17-.9s1.59.32,2.17.9c.57.58.9,1.36.9,2.17v56.87c0,.81-.33,1.58-.91,2.15-.57.57-1.35.89-2.16.89Z"/>
      <path class="cls-34" d="M1045.57,174.95c-1.66,0-3.06-1.77-3.06-3.59v-36.37c0-2.53,1.36-4.28,3.06-4.28s3.06,1.76,3.06,3.94v36.41c-.03,2.13-1.39,3.9-3.06,3.9Z"/>
      <path class="cls-6" d="M505.02,186.35h240.43"/>
      <path class="cls-13" d="M170.72,188.63h213.71"/>
      <path class="cls-4" d="M547.14,187.81h189.03"/>
      <path class="cls-25" d="M182.54,167.01c.74,4.1,1.24,8.24,1.49,12.4.29,4.13.43,8.26.42,12.39,0,4.13-.14,8.26-.41,12.39-.26,4.16-.76,8.3-1.5,12.39-.74-4.1-1.24-8.24-1.5-12.39-.28-4.13-.42-8.26-.41-12.39,0-4.12.15-8.26.42-12.39.25-4.16.75-8.3,1.49-12.4Z"/>
      <path class="cls-26" d="M218.58,158.05c.74,5.17,1.24,10.39,1.49,15.63.29,5.21.43,10.42.42,15.63,0,5.21-.14,10.41-.41,15.62-.26,5.24-.76,10.46-1.5,15.63-.74-5.17-1.24-10.39-1.5-15.63-.28-5.21-.42-10.41-.41-15.62,0-5.2.15-10.41.42-15.63.25-5.24.75-10.46,1.49-15.63Z"/>
      <path class="cls-24" d="M316.1,156.82c.74,5.17,1.24,10.39,1.49,15.63.29,5.21.43,10.42.42,15.63,0,5.21-.14,10.42-.41,15.62-.26,5.24-.76,10.46-1.5,15.63-.74-5.17-1.24-10.39-1.5-15.63-.28-5.21-.42-10.42-.41-15.62,0-5.2.15-10.41.42-15.63.25-5.24.75-10.46,1.49-15.63Z"/>
      <path class="cls-23" d="M346.57,156.12c.74,5.17,1.24,10.39,1.49,15.63.29,5.21.43,10.42.42,15.63,0,5.21-.14,10.42-.41,15.62-.26,5.24-.76,10.46-1.5,15.63-.74-5.17-1.24-10.39-1.5-15.63-.28-5.21-.42-10.42-.41-15.62,0-5.2.15-10.41.42-15.63.25-5.24.75-10.46,1.49-15.63Z"/>
      <path class="cls-27" d="M267.97,164.93c.74,4.09,1.24,8.21,1.49,12.36.29,4.12.43,8.24.42,12.35,0,4.12-.14,8.23-.41,12.35-.26,4.14-.76,8.27-1.5,12.36-.74-4.09-1.24-8.21-1.5-12.36-.28-4.12-.42-8.23-.41-12.35,0-4.11.15-8.23.42-12.35.25-4.15.75-8.27,1.49-12.36Z"/>
      <path class="cls-38" d="M247.24,156.8c.74,5.17,1.24,10.39,1.49,15.63.29,5.21.43,10.42.42,15.63,0,5.21-.14,10.41-.41,15.62-.26,5.24-.76,10.46-1.5,15.63-.74-5.17-1.24-10.39-1.5-15.63-.28-5.21-.42-10.41-.41-15.62,0-5.2.15-10.41.42-15.63.25-5.24.75-10.46,1.49-15.63Z"/>
      <path class="cls-39" d="M199.83,167.01c.74,4.1,1.24,8.24,1.49,12.4.29,4.13.43,8.26.42,12.39,0,4.13-.14,8.26-.41,12.39-.26,4.16-.76,8.3-1.5,12.39-.74-4.1-1.24-8.24-1.5-12.39-.28-4.13-.41-8.26-.41-12.39,0-4.12.15-8.26.42-12.39.25-4.16.75-8.3,1.49-12.4Z"/>
      <path class="cls-40" d="M354.97,164.99c.74,3.4,1.24,6.83,1.49,10.28.29,3.43.43,6.85.42,10.28,0,3.43-.14,6.85-.41,10.27-.26,3.45-.76,6.88-1.5,10.28-.74-3.4-1.24-6.83-1.5-10.28-.28-3.43-.41-6.85-.41-10.27,0-3.42.15-6.85.42-10.28.25-3.45.75-6.88,1.49-10.28Z"/>
      <path class="cls-41" d="M373.56,164.99c.74,3.4,1.24,6.83,1.49,10.28.29,3.43.43,6.85.42,10.28,0,3.43-.14,6.85-.41,10.27-.26,3.45-.76,6.88-1.5,10.28-.74-3.4-1.24-6.83-1.5-10.28-.28-3.43-.41-6.85-.41-10.27,0-3.42.15-6.85.42-10.28.25-3.45.75-6.88,1.49-10.28Z"/>
      <path class="cls-43" d="M297.34,165.78c.74,4.1,1.24,8.24,1.49,12.4.29,4.13.43,8.26.42,12.39,0,4.13-.14,8.26-.41,12.38-.26,4.16-.76,8.3-1.5,12.4-.74-4.1-1.24-8.24-1.5-12.4-.28-4.13-.42-8.26-.41-12.38,0-4.12.15-8.26.42-12.39.25-4.16.75-8.3,1.49-12.4Z"/>
      <path class="cls-49" d="M190.81,140.67c.74,8.42,1.24,16.92,1.49,25.45.29,8.49.43,16.97.42,25.45,0,8.49-.14,16.96-.41,25.43-.26,8.54-.76,17.04-1.5,25.45-.74-8.42-1.24-16.92-1.5-25.45-.28-8.49-.41-16.96-.41-25.43,0-8.47.15-16.95.42-25.45.25-8.54.75-17.04,1.49-25.45Z"/>
      <path class="cls-50" d="M288.33,126.85c.74,10.5,1.24,21.1,1.49,31.75.29,10.58.43,21.17.42,31.75,0,10.58-.14,21.16-.41,31.72-.26,10.65-.76,21.25-1.5,31.75-.74-10.5-1.24-21.1-1.5-31.75-.28-10.58-.42-21.16-.41-31.72,0-10.57.15-21.15.42-31.75.25-10.65.75-21.25,1.49-31.75Z"/>
      <path class="cls-51" d="M326.18,125.82c.74,10.5,1.24,21.1,1.49,31.75.29,10.58.43,21.17.42,31.75,0,10.58-.14,21.16-.41,31.72-.26,10.65-.76,21.25-1.5,31.75-.74-10.5-1.24-21.1-1.5-31.75-.28-10.58-.41-21.16-.41-31.72,0-10.57.15-21.15.42-31.75.25-10.65.75-21.25,1.49-31.75Z"/>
      <path class="cls-52" d="M227.95,141.55c.74,8.42,1.24,16.92,1.49,25.45.29,8.49.43,16.97.42,25.45,0,8.49-.14,16.96-.41,25.43-.26,8.54-.76,17.04-1.5,25.45-.74-8.42-1.24-16.92-1.5-25.45-.28-8.49-.41-16.96-.41-25.43,0-8.47.15-16.96.42-25.45.25-8.54.75-17.04,1.49-25.45Z"/>
      <path class="cls-42" d="M277.33,141.88c.74,8.42,1.24,16.92,1.49,25.46.29,8.48.43,16.97.42,25.45,0,8.48-.14,16.96-.41,25.43-.26,8.54-.76,17.04-1.5,25.45-.74-8.42-1.24-16.92-1.5-25.45-.28-8.48-.41-16.96-.41-25.43,0-8.47.15-16.96.42-25.45.25-8.54.75-17.04,1.49-25.46Z"/>
      <path class="cls-45" d="M209.2,151.51c.74,6.62,1.24,13.31,1.49,20.03.29,6.68.43,13.35.42,20.03,0,6.68-.14,13.35-.41,20.01-.26,6.72-.76,13.41-1.5,20.03-.74-6.62-1.24-13.31-1.5-20.03-.28-6.68-.41-13.35-.41-20.01,0-6.67.15-13.34.42-20.03.25-6.72.75-13.41,1.49-20.03Z"/>
      <path class="cls-44" d="M306.71,150.28c.74,6.62,1.24,13.31,1.49,20.03.29,6.68.43,13.35.42,20.03,0,6.68-.14,13.35-.41,20.01-.26,6.72-.76,13.41-1.5,20.03-.74-6.62-1.24-13.31-1.5-20.03-.28-6.68-.42-13.35-.41-20.01,0-6.67.15-13.34.42-20.03.25-6.72.75-13.41,1.49-20.03Z"/>
      <path class="cls-46" d="M337.18,149.58c.74,6.62,1.24,13.31,1.49,20.03.29,6.68.43,13.35.42,20.03,0,6.68-.14,13.35-.41,20.01-.26,6.72-.76,13.41-1.5,20.03-.74-6.62-1.24-13.31-1.5-20.03-.28-6.68-.42-13.35-.41-20.01,0-6.67.15-13.34.42-20.03.25-6.72.75-13.41,1.49-20.03Z"/>
      <path class="cls-47" d="M365.61,148.58c.74,6.62,1.24,13.31,1.49,20.03.29,6.68.43,13.35.42,20.03,0,6.68-.14,13.35-.41,20.01-.26,6.72-.76,13.41-1.5,20.03-.74-6.62-1.24-13.31-1.5-20.03-.28-6.68-.42-13.35-.41-20.01,0-6.67.15-13.34.42-20.03.25-6.72.75-13.41,1.49-20.03Z"/>
      <path class="cls-53" d="M258.58,151.84c.74,6.62,1.24,13.31,1.49,20.03.29,6.68.43,13.35.42,20.03,0,6.68-.14,13.35-.41,20.01-.26,6.72-.76,13.41-1.5,20.03-.74-6.62-1.24-13.31-1.5-20.03-.28-6.68-.41-13.35-.41-20.01,0-6.66.15-13.34.42-20.03.25-6.72.75-13.41,1.49-20.03Z"/>
      <path class="cls-48" d="M237.03,124.79c.74,10.67,1.24,21.44,1.49,32.27.29,10.76.43,21.51.42,32.27,0,10.75-.14,21.5-.41,32.24-.26,10.82-.76,21.6-1.5,32.27-.74-10.67-1.24-21.44-1.5-32.27-.28-10.76-.42-21.5-.41-32.24,0-10.74.15-21.49.42-32.27.25-10.82.75-21.6,1.49-32.27Z"/>
      <path class="cls-32" d="M94.11,276.35c45.95,0,83.21-37.29,83.21-83.28s-37.25-83.29-83.21-83.29S10.9,147.07,10.9,193.07s37.25,83.28,83.21,83.28Z"/>
      <path class="cls-17" d="M84.65,268.83c45.95,0,83.21-37.29,83.21-83.29s-37.25-83.28-83.21-83.28S1.44,139.54,1.44,185.54s37.25,83.29,83.21,83.29Z"/>
      <path class="cls-32" d="M473.37,272.59c45.96,0,83.21-37.29,83.21-83.29s-37.25-83.28-83.21-83.28-83.21,37.29-83.21,83.28,37.25,83.29,83.21,83.29Z"/>
      <path class="cls-17" d="M463.91,265.07c45.95,0,83.21-37.29,83.21-83.28s-37.25-83.29-83.21-83.29-83.21,37.29-83.21,83.29,37.25,83.28,83.21,83.28Z"/>
      <path class="cls-20" d="M109.95,156.95c0-11.81-9.57-21.38-21.36-21.38s-21.36,9.57-21.36,21.38v29.85c0,11.81,9.56,21.38,21.36,21.38s21.36-9.57,21.36-21.38v-29.85Z"/>
      <path class="cls-3" d="M106.56,154.86c0-11.81-9.56-21.38-21.36-21.38s-21.36,9.57-21.36,21.38v29.85c0,11.81,9.56,21.38,21.36,21.38s21.36-9.57,21.36-21.38v-29.85Z"/>
      <path class="cls-8" d="M125.02,182.04c-.09,5.25-1.22,10.44-3.32,15.25-2.11,4.81-5.15,9.16-8.95,12.78-3.8,3.62-8.28,6.45-13.19,8.33-4.9,1.87-10.13,2.75-15.38,2.58-5.25-.17-10.41-1.38-15.18-3.57-4.77-2.19-9.07-5.3-12.62-9.16-3.56-3.86-6.32-8.39-8.11-13.33-1.79-4.94-2.59-10.18-2.33-15.43"/>
      <path class="cls-8" d="M85.46,220.56v33.27"/>
      <path class="cls-5" d="M65.62,158.71h14.16"/>
      <path class="cls-5" d="M65.31,170.94h14.16"/>
      <path class="cls-5" d="M65.31,183.01h14.16"/>
      <path class="cls-5" d="M91.09,158.71h14.16"/>
      <path class="cls-5" d="M91.59,170.94h14.16"/>
      <path class="cls-5" d="M91.59,183.01h14.16"/>
      <path class="cls-35" d="M512.69,195.87l-8.85-28.28c-.56-1.79-1.62-3.38-3.05-4.59-1.43-1.21-3.18-1.99-5.03-2.24-1.86-.25-3.74.03-5.45.81-1.7.78-3.15,2.03-4.17,3.6l-16.51,25.48-6.71-2.46h-.24c-.6-.16-1.15-.47-1.61-.89-.46-.42-.81-.94-1.02-1.52-.22-.58-.29-1.21-.22-1.82.07-.62.29-1.21.64-1.72l10.89-16.77c.39-.66.5-1.45.33-2.19-.18-.75-.63-1.39-1.28-1.81-.64-.42-1.42-.57-2.17-.43-.75.14-1.42.57-1.87,1.19l-10.88,16.75c-.85,1.29-1.39,2.76-1.57,4.29-.18,1.54,0,3.09.53,4.54.53,1.45,1.39,2.76,2.52,3.81,1.13,1.06,2.48,1.84,3.96,2.27l5.39,1.96-5.49,8.48c-.36.55-.84,1-1.41,1.31-.57.31-1.21.47-1.86.47h-27.23c-.7,0-1.39-.2-2-.56-.6-.36-1.1-.88-1.43-1.5-.33-.62-.5-1.32-.47-2.02.03-.7.25-1.39.63-1.98l21.99-33.68c.98-1.49,1.54-3.23,1.62-5.02.08-1.79-.33-3.56-1.18-5.14-.83-1.56-2.06-2.86-3.58-3.76-1.51-.9-3.25-1.37-5.01-1.35h-17.48c-.41-.02-.81.04-1.19.18-.38.14-.73.35-1.03.63-.3.28-.53.61-.69.99-.16.37-.24.78-.24,1.18s.08.81.24,1.18c.16.37.4.71.69.99.3.28.65.5,1.03.63.38.14.79.2,1.19.17h17.49c.69-.01,1.37.17,1.96.52.59.35,1.08.86,1.4,1.47.35.63.51,1.35.48,2.07-.03.72-.26,1.42-.66,2.02l-21.99,33.56c-.98,1.49-1.53,3.21-1.61,4.99-.08,1.78.33,3.55,1.17,5.11.84,1.57,2.1,2.88,3.62,3.79,1.53.91,3.27,1.4,5.05,1.4h27.26c1.65,0,3.27-.41,4.71-1.19,1.45-.79,2.67-1.93,3.56-3.31l6.21-9.61,28.35,10.38.24.07c1.71.47,3.51.46,5.22,0,1.71-.47,3.26-1.39,4.49-2.66,1.23-1.27,2.1-2.86,2.51-4.58.41-1.72.35-3.52-.17-5.22ZM506.09,201.53c-.47.5-1.06.86-1.72,1.05-.66.19-1.35.2-2.01.04l-26.96-9.86,15.74-24.35c.4-.62.98-1.12,1.65-1.43.68-.31,1.42-.42,2.16-.32.74.1,1.43.41,1.99.89.57.48.98,1.11,1.2,1.82l8.85,28.27c.22.67.25,1.39.09,2.07s-.5,1.32-1,1.82Z"/>
      <path class="cls-35" d="M477.86,154.55c2.87,0,5.19-2.32,5.19-5.19s-2.32-5.2-5.19-5.2-5.19,2.33-5.19,5.2,2.32,5.19,5.19,5.19Z"/>
    </g>
  </g>
</svg>